<svg width="23" height="18" viewBox="0 0 23 18" fill="none" xmlns="http://www.w3.org/2000/svg">
<g clip-path="url(#clip0_1_40)">
<path d="M17.1667 2.0083H5.26667C4.30333 2.0083 3.56667 2.74497 3.56667 3.7083V15.6083C3.56667 16.5716 4.30333 17.3083 5.26667 17.3083H17.1667C18.13 17.3083 18.8667 16.5716 18.8667 15.6083V3.7083C18.8667 2.74497 18.13 2.0083 17.1667 2.0083ZM11.2167 14.3616C13.8233 14.3616 15.92 12.265 15.92 9.6583C15.92 9.37497 15.8633 9.09163 15.8067 8.8083H17.1667V14.9283C17.1667 15.2683 16.8833 15.495 16.6 15.495H5.83333C5.49333 15.495 5.26667 15.2116 5.26667 14.9283V8.8083H6.57C6.51333 9.09163 6.45667 9.37497 6.45667 9.6583C6.51333 12.265 8.61 14.3616 11.2167 14.3616ZM8.27 9.6583C8.27 8.01497 9.57333 6.71163 11.2167 6.71163C12.86 6.71163 14.1633 8.01497 14.1633 9.6583C14.1633 11.3016 12.86 12.605 11.2167 12.605C9.57333 12.605 8.27 11.245 8.27 9.6583ZM16.6 6.2583H15.24C14.9 6.2583 14.6733 5.97497 14.6733 5.69163V4.27497C14.6733 3.93497 14.9567 3.7083 15.24 3.7083H16.6C16.94 3.7083 17.1667 3.99163 17.1667 4.27497V5.63497C17.1667 5.97497 16.8833 6.2583 16.6 6.2583Z" fill="white"/>
</g>
<defs>
<clipPath id="clip0_1_40">
<rect width="17" height="17" fill="white" transform="translate(3 0.875)"/>
</clipPath>
</defs>
</svg>
